<svg xmlns="http://www.w3.org/2000/svg" viewBox="0 0 1200 800" fill="none">
  <defs>
    <linearGradient id="d1" x1="0" y1="0" x2="1" y2="1">
      <stop offset="0" stop-color="#ffffff"/>
      <stop offset="1" stop-color="#cfeeff"/>
    </linearGradient>
  </defs>
  <rect width="1200" height="800" rx="56" fill="url(#d1)"/>
  <rect x="80" y="80" width="1040" height="640" rx="40" fill="#041e5c" fill-opacity="0.94"/>
  <rect x="120" y="120" width="280" height="32" rx="16" fill="#17d4f5" fill-opacity="0.8"/>
  <rect x="120" y="184" width="420" height="18" rx="9" fill="#ffffff" fill-opacity="0.25"/>
  <rect x="120" y="220" width="320" height="18" rx="9" fill="#ffffff" fill-opacity="0.16"/>
  <g transform="translate(120 290)">
    <rect x="0" y="0" width="960" height="320" rx="30" fill="#ffffff" fill-opacity="0.06" stroke="#ffffff" stroke-opacity="0.12"/>
    <path d="M50 250C150 120 270 110 350 190C430 270 520 280 620 170C720 60 820 70 910 135" stroke="#17d4f5" stroke-width="10" stroke-linecap="round"/>
    <path d="M50 210C150 180 270 210 350 150C430 90 520 100 620 130C720 160 820 120 910 80" stroke="#80d4ff" stroke-opacity="0.55" stroke-width="8" stroke-linecap="round"/>
    <g fill="#ffffff" fill-opacity="0.7">
      <circle cx="50" cy="250" r="8"/><circle cx="350" cy="190" r="8"/><circle cx="620" cy="170" r="8"/><circle cx="910" cy="135" r="8"/>
    </g>
  </g>
</svg>